<?xml version="1.0" encoding="UTF-8" standalone="no"?>
<!-- Created with Inkscape (http://www.inkscape.org/) -->

<svg
   width="52mm"
   height="52mm"
   viewBox="0 0 52 52"
   version="1.1"
   id="svg1"
   xml:space="preserve"
   inkscape:version="1.3.2 (091e20e, 2023-11-25, custom)"
   sodipodi:docname="aix-original.svg"
   xmlns:inkscape="http://www.inkscape.org/namespaces/inkscape"
   xmlns:sodipodi="http://sodipodi.sourceforge.net/DTD/sodipodi-0.dtd"
   xmlns="http://www.w3.org/2000/svg"
   xmlns:svg="http://www.w3.org/2000/svg"><sodipodi:namedview
     id="namedview1"
     pagecolor="#ffffff"
     bordercolor="#000000"
     borderopacity="0.25"
     inkscape:showpageshadow="2"
     inkscape:pageopacity="0.0"
     inkscape:pagecheckerboard="0"
     inkscape:deskcolor="#d1d1d1"
     inkscape:document-units="mm"
     inkscape:zoom="1.4627806"
     inkscape:cx="245.08119"
     inkscape:cy="182.8709"
     inkscape:window-width="1920"
     inkscape:window-height="1017"
     inkscape:window-x="-8"
     inkscape:window-y="-8"
     inkscape:window-maximized="1"
     inkscape:current-layer="layer1" /><defs
     id="defs1" /><g
     inkscape:label="Layer 1"
     inkscape:groupmode="layer"
     id="layer1"
     style="display:inline;opacity:1"
     transform="translate(-59.508528,-121.54933)"><path
       style="display:inline;fill:#7bb903;stroke:none"
       d="m 82.342705,121.94887 c -3.794207,0.50429 -7.301111,1.57283 -10.583332,3.60924 -18.246832,11.321 -14.831244,39.14033 5.027084,46.48888 3.907968,1.44614 8.844418,1.54904 12.964578,1.04302 3.08941,-0.37942 6.03706,-1.49029 8.73125,-3.02535 19.058895,-10.8591 16.163515,-40.70892 -5.02708,-47.20016 -3.4867,-1.06806 -7.49074,-1.39699 -11.1125,-0.91563 m 0.26458,1.28638 c 20.547985,-2.52356 35.268515,21.66784 22.976705,38.55342 -1.93054,2.65203 -4.30853,4.93189 -7.101705,6.66379 -2.82353,1.75073 -5.95514,2.90871 -9.26041,3.31464 -3.75961,0.46173 -8.33768,0.33778 -11.906252,-0.99974 -18.781272,-7.03935 -22.634117,-34.55187 -3.96875,-44.49063 2.916059,-1.55272 5.970672,-2.63746 9.260412,-3.04148 m -0.26458,2.15321 c -3.10709,0.41296 -5.74737,1.14412 -8.466665,2.7622 -15.856029,9.4349 -13.565875,33.02567 2.910417,40.28914 4.009718,1.76766 8.431838,1.75561 12.699998,1.21084 13.958585,-1.78162 22.251715,-17.80599 17.078085,-30.61613 -3.9306,-9.73236 -14.010705,-15.00321 -24.221835,-13.64605 m 17.727085,13.64605 c -1.020015,1.99812 -5.237895,5.10051 -4.988295,7.40833 0.25654,2.37195 3.51903,4.64427 4.45913,6.87917 -3.29194,-0.002 -4.74019,-2.60461 -5.82084,-5.55625 h -0.52916 c -1.35505,3.14065 -2.7548,5.55386 -6.35,5.55625 l 4.64205,-6.87917 -4.11289,-7.14375 c 2.89175,-0.8451 4.62703,3.67652 5.82084,5.82083 1.93007,-1.94618 3.76545,-6.57005 6.879165,-6.08541 m -15.081255,0.26458 v 14.02292 l -2.10931,-0.42423 -0.27194,-3.01536 v -7.40833 l 0.27194,-2.75077 2.10931,-0.42423 m -3.70416,14.02292 c -2.932076,-0.0104 -2.195855,-1.7615 -4.072054,-3.24319 -0.812444,-0.64161 -2.101899,-0.47791 -3.071698,-0.45975 -3.234804,0.0606 -2.124365,3.70028 -5.55625,3.70294 0.957404,-3.50044 2.657177,-6.98042 4.081851,-10.31875 0.407734,-0.95542 0.982036,-3.0966 2.281624,-3.0966 1.364231,0 1.910001,2.09376 2.314696,3.0966 1.36256,3.37644 3.061401,6.80726 4.021831,10.31875 m -6.614585,-9.525 -1.852083,4.23333 h 3.96875 l -1.5875,-4.23333 z"
       id="path1" /></g></svg>
