<?xml version="1.0" encoding="UTF-8" standalone="no"?>
<!-- Created with Inkscape (http://www.inkscape.org/) -->

<svg
   width="51.399075mm"
   height="51.633659mm"
   viewBox="0 0 51.399075 51.633659"
   version="1.1"
   id="svg1"
   xml:space="preserve"
   xmlns="http://www.w3.org/2000/svg"
   xmlns:svg="http://www.w3.org/2000/svg"><defs
     id="defs1" /><g
     id="layer1"
     style="display:inline;opacity:1"
     transform="translate(-120.94541,-121.7325)"><path
       style="display:inline;fill:#7bb903;stroke:none"
       d="m 143.47912,121.94887 c -3.7942,0.50429 -7.30111,1.57283 -10.58333,3.60924 -18.24683,11.321 -14.83124,39.14033 5.02709,46.48888 3.90796,1.44614 8.84441,1.54904 12.96457,1.04302 3.08941,-0.37942 6.03706,-1.49029 8.73125,-3.02535 19.0589,-10.8591 16.16352,-40.70892 -5.02708,-47.20016 -3.4867,-1.06806 -7.49074,-1.39699 -11.1125,-0.91563 m 0.26458,1.28638 c 20.54799,-2.52356 35.26852,21.66784 22.97671,38.55342 -1.93054,2.65203 -4.30853,4.93189 -7.10171,6.66379 -2.82353,1.75073 -5.95514,2.90871 -9.26041,3.31464 -3.75961,0.46173 -8.33768,0.33778 -11.90625,-0.99974 -18.78127,-7.03935 -22.63411,-34.55187 -3.96875,-44.49063 2.91606,-1.55272 5.97067,-2.63746 9.26041,-3.04148 m -0.26458,2.15321 c -3.10709,0.41296 -5.74737,1.14412 -8.46666,2.7622 -15.85603,9.4349 -13.56588,33.02567 2.91042,40.28914 4.00971,1.76766 8.43183,1.75561 12.69999,1.21084 13.95859,-1.78162 22.25172,-17.80599 17.07809,-30.61613 -3.9306,-9.73236 -14.01071,-15.00321 -24.22184,-13.64605 m 17.72709,13.64605 c -1.02002,1.99812 -5.2379,5.10051 -4.9883,7.40833 0.25654,2.37195 3.51903,4.64427 4.45913,6.87917 -3.29194,-0.002 -4.74019,-2.60461 -5.82084,-5.55625 h -0.52916 c -1.35505,3.14065 -2.7548,5.55386 -6.35,5.55625 l 4.64205,-6.87917 -4.11289,-7.14375 c 2.89175,-0.8451 4.62703,3.67652 5.82084,5.82083 1.93007,-1.94618 3.76545,-6.57005 6.87917,-6.08541 m -15.08126,0.26458 v 14.02292 l -2.10931,-0.42423 -0.27194,-3.01536 v -7.40833 l 0.27194,-2.75077 2.10931,-0.42423 m -3.70416,14.02292 c -2.93207,-0.0104 -2.19585,-1.7615 -4.07205,-3.24319 -0.81244,-0.64161 -2.1019,-0.47791 -3.0717,-0.45975 -3.2348,0.0606 -2.12436,3.70028 -5.55625,3.70294 0.95741,-3.50044 2.65718,-6.98042 4.08185,-10.31875 0.40774,-0.95542 0.98204,-3.0966 2.28163,-3.0966 1.36423,0 1.91,2.09376 2.31469,3.0966 1.36256,3.37644 3.0614,6.80726 4.02183,10.31875 m -6.61458,-9.525 -1.85208,4.23333 h 3.96875 l -1.5875,-4.23333 z"
       id="path1" /></g></svg>
